<svg version="1.1" id="Layer_1" xmlns="http://www.w3.org/2000/svg" xmlns:xlink="http://www.w3.org/1999/xlink" x="0px" y="0px"
	 width="100%" viewBox="0 0 1024 1024" enable-background="new 0 0 1024 1024" xml:space="preserve">
<path fill="#000000" opacity="1.000000" stroke="none" 
	d="
M921.176758,776.873047 
	C928.427368,787.324646 934.942139,797.729431 938.087402,809.904724 
	C939.616577,815.823914 939.749146,821.827881 939.232788,827.778320 
	C938.715637,833.737183 934.588562,837.569458 929.666565,840.414856 
	C922.861206,844.349182 915.311279,845.626587 907.593628,846.060425 
	C885.211182,847.318787 863.485107,843.110291 841.880188,838.018738 
	C792.264465,826.325928 744.722473,808.507080 697.791565,788.947571 
	C623.715088,758.074585 552.455261,721.476013 482.646515,682.036072 
	C442.316498,659.250854 403.338531,634.255676 365.599609,607.359802 
	C333.005554,584.130432 301.228607,559.913452 273.195923,531.160095 
	C262.235260,519.917725 251.834320,508.228271 244.847427,493.954742 
	C242.634750,489.434418 240.959839,484.724579 240.712784,479.644836 
	C240.396881,473.149139 243.354782,468.427368 249.307602,465.773376 
	C259.753174,461.116272 270.681885,462.465424 281.309937,464.137238 
	C322.408539,470.602112 361.055237,485.100189 399.261230,500.968231 
	C434.678406,515.678040 468.449066,533.863525 503.212708,549.949463 
	C505.025513,550.788269 506.814423,551.707520 508.893860,551.699097 
	C509.968597,551.694763 510.911438,551.408630 511.331665,550.342957 
	C511.751678,549.277832 511.320923,548.338501 510.460541,547.709290 
	C509.389740,546.926147 508.246124,546.231262 507.087341,545.581360 
	C446.196533,511.431519 386.203766,475.786346 328.122131,437.021973 
	C275.996979,402.233063 225.026230,365.825073 178.001343,324.274292 
	C154.650833,303.641968 132.251068,281.894928 112.499352,257.713867 
	C101.858788,244.687103 91.911278,230.861740 87.792038,214.132172 
	C82.669136,193.326309 93.642242,180.073746 115.101456,179.506592 
	C147.969788,178.637878 179.646408,185.028366 210.998398,194.029739 
	C262.676727,208.866959 312.464294,228.708389 361.418823,250.727371 
	C435.327759,283.970428 507.280762,321.007629 576.733337,362.810547 
	C621.165100,389.553650 664.382141,418.115082 704.769348,450.741791 
	C728.123657,469.608429 750.537720,489.520874 769.497253,512.978760 
	C775.696167,520.648438 781.291443,528.716919 784.193848,538.313110 
	C784.673462,539.898743 785.119019,541.532776 785.271606,543.173157 
	C786.309387,554.325623 782.626343,559.456909 771.575562,561.325867 
	C756.816284,563.822021 742.323853,561.063110 727.994629,557.950806 
	C687.257141,549.102905 648.640686,534.030945 610.781189,516.959900 
	C580.561035,503.333435 550.557495,489.223846 521.391907,473.412720 
	C520.383362,472.865997 519.265625,472.416351 518.145386,472.207306 
	C516.798828,471.955994 515.361755,472.142120 514.720764,473.595245 
	C514.157227,474.872711 515.014404,475.882874 515.931274,476.604950 
	C517.234131,477.630951 518.634949,478.548737 520.062256,479.398071 
	C556.708008,501.205597 593.999390,521.916199 630.227356,544.435913 
	C695.931335,585.278198 760.066528,628.364136 820.268311,677.078674 
	C850.092407,701.212036 878.708496,726.669128 904.088318,755.544067 
	C910.018677,762.291138 915.368835,769.548096 921.176758,776.873047 
z"/>
</svg>