<?xml version="1.0" standalone="no"?>
<!DOCTYPE svg PUBLIC "-//W3C//DTD SVG 20010904//EN"
 "http://www.w3.org/TR/2001/REC-SVG-20010904/DTD/svg10.dtd">
<svg version="1.0" xmlns="http://www.w3.org/2000/svg"
 width="1600.000000pt" height="1593.000000pt" viewBox="0 0 1600.000000 1593.000000"
 preserveAspectRatio="xMidYMid meet">

<g transform="translate(0.000000,1593.000000) scale(0.100000,-0.100000)"
fill="#000000" stroke="none">
<path d="M3385 15924 c-687 -56 -1235 -241 -1775 -599 -218 -145 -348 -252
-551 -454 -202 -203 -309 -333 -454 -551 -331 -500 -509 -994 -587 -1630 -19
-155 -19 -9295 0 -9450 72 -589 237 -1070 526 -1538 248 -401 601 -773 991
-1047 505 -354 1063 -562 1705 -637 168 -19 9363 -19 9520 0 638 79 1147 263
1640 593 209 140 342 250 536 444 589 586 930 1289 1041 2140 17 134 18 351
18 4770 0 4419 -1 4636 -18 4770 -38 288 -91 518 -179 775 -395 1145 -1362
2026 -2540 2314 -150 37 -258 57 -448 84 -105 14 -537 16 -4750 17 -2549 1
-4653 0 -4675 -1z m840 -3044 c259 -29 483 -136 661 -314 253 -255 366 -602
309 -951 -104 -637 -735 -1048 -1358 -885 -380 100 -681 402 -784 787 -24 88
-27 115 -27 273 0 158 3 185 27 275 32 119 117 294 186 386 178 234 459 394
751 428 106 12 133 12 235 1z m985 -6480 l0 -3360 -1095 0 -1095 0 0 3360 0
3360 1095 0 1095 0 0 -3360z m3218 2838 c2 -573 2 -568 62 -463 50 88 167 233
267 331 389 384 939 613 1545 643 192 9 497 -2 674 -24 608 -78 1077 -298
1387 -650 369 -421 556 -1005 607 -1899 6 -110 10 -936 10 -2157 l0 -1979
-1052 2 -1053 3 -6 1900 c-6 2060 -3 1976 -60 2229 -130 583 -491 850 -1114
822 -231 -10 -400 -48 -560 -128 -295 -148 -482 -422 -565 -828 -55 -271 -53
-197 -57 -2172 l-4 -1828 -1049 0 -1050 0 0 3360 0 3360 1008 -2 1007 -3 3
-517z"/>
</g>
</svg>
